<svg width="390" height="103" viewBox="0 0 390 103" fill="none" xmlns="http://www.w3.org/2000/svg">
<path d="M84.4187 36.6893H95.3627V57.4973H114.731V36.6893H125.675V87.8093H114.731V66.7133H95.3627V87.8093H84.4187V36.6893Z" fill="white"/>
<path d="M147.325 88.6733C143.245 88.6733 139.957 87.7373 137.461 85.8653C135.013 83.9933 133.789 81.4253 133.789 78.1613C133.789 74.8493 134.821 72.2573 136.885 70.3853C138.949 68.4653 142.141 67.0733 146.461 66.2093L158.917 63.7613C158.917 58.7213 156.709 56.2013 152.293 56.2013C148.309 56.2013 145.957 58.0493 145.237 61.7453L134.437 61.2413C135.157 57.0173 137.053 53.8253 140.125 51.6653C143.197 49.4573 147.253 48.3533 152.293 48.3533C158.053 48.3533 162.397 49.7213 165.325 52.4573C168.253 55.1933 169.717 59.2013 169.717 64.4813V77.6573C169.717 78.7133 169.885 79.4333 170.221 79.8173C170.557 80.2013 171.109 80.3933 171.877 80.3933H172.957V87.8093C171.997 88.0973 170.701 88.2413 169.069 88.2413C164.269 88.2413 161.461 86.1533 160.645 81.9773C159.637 84.0413 157.957 85.6733 155.605 86.8733C153.301 88.0733 150.541 88.6733 147.325 88.6733ZM149.917 81.2573C152.653 81.2573 154.837 80.4653 156.469 78.8813C158.101 77.2973 158.917 75.1373 158.917 72.4013V70.5293L150.133 72.4013C146.629 73.1213 144.877 74.7053 144.877 77.1533C144.877 78.4493 145.309 79.4573 146.173 80.1773C147.037 80.8973 148.285 81.2573 149.917 81.2573Z" fill="white"/>
<path d="M189.126 87.8093C182.406 87.8093 179.046 84.4493 179.046 77.7293V36.6893H189.846V76.5773C189.846 77.6813 190.086 78.4973 190.566 79.0253C191.094 79.5053 191.886 79.7453 192.942 79.7453H195.534V87.8093H189.126Z" fill="white"/>
<path d="M203.309 90.5453H208.421C209.621 90.5453 210.509 90.3773 211.085 90.0413C211.661 89.7053 212.141 89.0573 212.525 88.0973L213.389 85.8653H210.437L196.829 49.2173H207.917L216.701 75.7853L225.053 49.2173H236.069L221.237 91.4813C220.325 94.0253 219.053 95.8493 217.421 96.9533C215.837 98.0573 213.581 98.6093 210.653 98.6093H203.309V90.5453Z" fill="white"/>
<path d="M257.998 88.6733C254.062 88.6733 250.606 87.8573 247.63 86.2253C244.702 84.5453 242.422 82.1933 240.79 79.1693C239.206 76.0973 238.414 72.5453 238.414 68.5133C238.414 64.4813 239.206 60.9533 240.79 57.9293C242.422 54.8573 244.702 52.5053 247.63 50.8733C250.606 49.1933 254.062 48.3533 257.998 48.3533C263.182 48.3533 267.478 49.6973 270.886 52.3853C274.294 55.0733 276.286 58.7693 276.862 63.4733L265.702 63.9773C265.366 61.6253 264.502 59.8253 263.11 58.5773C261.766 57.3293 260.062 56.7053 257.998 56.7053C255.31 56.7053 253.222 57.7373 251.734 59.8013C250.246 61.8653 249.502 64.7693 249.502 68.5133C249.502 72.2573 250.246 75.1853 251.734 77.2973C253.222 79.3613 255.31 80.3933 257.998 80.3933C260.158 80.3933 261.91 79.7453 263.254 78.4493C264.598 77.1533 265.414 75.2333 265.702 72.6893L276.862 73.1213C276.334 77.8733 274.366 81.6653 270.958 84.4973C267.55 87.2813 263.23 88.6733 257.998 88.6733Z" fill="white"/>
<path d="M282.968 49.2173H293.192L293.408 56.9933C294.176 54.2573 295.304 52.2893 296.792 51.0893C298.28 49.8413 300.224 49.2173 302.624 49.2173H306.152V58.1453H302.624C299.552 58.1453 297.296 58.7693 295.856 60.0173C294.464 61.2653 293.768 63.3053 293.768 66.1373V87.8093H282.968V49.2173Z" fill="white"/>
<path d="M328.662 88.6733C324.774 88.6733 321.342 87.8573 318.366 86.2253C315.39 84.5453 313.086 82.1933 311.454 79.1693C309.87 76.0973 309.078 72.5453 309.078 68.5133C309.078 64.4813 309.894 60.9533 311.526 57.9293C313.158 54.8573 315.438 52.5053 318.366 50.8733C321.342 49.1933 324.774 48.3533 328.662 48.3533C332.55 48.3533 335.958 49.1933 338.886 50.8733C341.862 52.5053 344.166 54.8573 345.798 57.9293C347.43 60.9533 348.246 64.4813 348.246 68.5133C348.246 72.5453 347.43 76.0973 345.798 79.1693C344.214 82.1933 341.934 84.5453 338.958 86.2253C335.982 87.8573 332.55 88.6733 328.662 88.6733ZM328.662 80.3933C331.35 80.3933 333.414 79.3613 334.854 77.2973C336.342 75.1853 337.086 72.2573 337.086 68.5133C337.086 64.7693 336.342 61.8653 334.854 59.8013C333.414 57.6893 331.35 56.6333 328.662 56.6333C325.974 56.6333 323.886 57.6893 322.398 59.8013C320.91 61.8653 320.166 64.7693 320.166 68.5133C320.166 72.2573 320.91 75.1853 322.398 77.2973C323.886 79.3613 325.974 80.3933 328.662 80.3933Z" fill="white"/>
<path d="M355.179 49.2173H364.899L365.115 55.5533C367.131 50.7533 370.947 48.3533 376.563 48.3533C380.691 48.3533 383.907 49.6733 386.211 52.3133C388.515 54.9053 389.667 58.4573 389.667 62.9693V87.8093H378.867V66.5693C378.867 63.3053 378.411 60.8813 377.499 59.2973C376.635 57.7133 375.123 56.9213 372.963 56.9213C370.707 56.9213 368.979 57.7613 367.779 59.4413C366.579 61.1213 365.979 63.4973 365.979 66.5693V87.8093H355.179V49.2173Z" fill="white"/>
<path d="M55.0001 102.5C21.3753 86.299 -0.000242657 52.2724 2.06546e-09 14.9482L9.71859e-05 0L55.0001 22.5L55.0001 102.5Z" fill="#00FFD1"/>
</svg>
